<?xml version="1.0" encoding="utf-8"?>
<!-- Generator: Adobe Illustrator 25.2.1, SVG Export Plug-In . SVG Version: 6.00 Build 0)  -->
<svg version="1.1" id="Layer_1" xmlns="http://www.w3.org/2000/svg" xmlns:xlink="http://www.w3.org/1999/xlink" x="0px" y="0px"
	 viewBox="0 0 1920 1080" style="enable-background:new 0 0 1920 1080;" xml:space="preserve">
<style type="text/css">
	.st0{fill:#82BF59;}
	.st1{fill:#71A54F;}
	.st2{fill:#618E44;}
	.st3{fill:#69994A;}
	.st4{fill:#80AD5C;}
	.st5{fill:#70A050;}
	.st6{opacity:0.2;}
	.st7{fill:#FFFFFF;}
	.st8{fill:#639344;}
	.st9{fill:#4D7C2E;}
	.st10{fill:#467229;}
	.st11{fill:#578937;}
</style>
<g>
	<rect x="-1.2" y="-10" class="st0" width="1981.3" height="1095.3"/>
	<path class="st1" d="M943.9,1022.9C1183,920.9,1150.7,914,1290,901.1c77.3-7.2,150-4.3,232.8-13.8
		c150.7-17.3,194.6-128.8,293.5-148.2c162.3-31.7,232.1,78.7,284.8,283.8C1715.3,1033.2,1329.6,1012.7,943.9,1022.9z"/>
	<path class="st2" d="M1213.8,1088.2c-174.6-155.7-244.2-275.8-429-261.6c-82.6,6.3-150.9,80.6-239.2,71
		c-118.9-13-203.6-121.6-309.8-166.4c-132-55.7-248.4,50.3-331.1,144.7c-35.8,40.8-69.2,148.5-85,201
		C231.2,1087.3,802.4,1077.8,1213.8,1088.2z"/>
	<polygon class="st3" points="1049.4,840.5 1004.7,789.4 960,840.5 959.4,840.5 959.4,928 889.3,928 889.3,1087.6 959.4,1087.6 
		972.5,1087.6 1049.9,1087.6 1049.9,840.5 	"/>
	<polygon class="st4" points="553.2,923.6 553.2,770.1 643.5,770.1 643.5,863.2 731,863.2 731,1087.6 643.5,1087.6 628.8,1087.6 
		598.4,1087.6 553.2,1087.6 391.6,1087.6 391.6,923.6 	"/>
	<polygon class="st3" points="693.5,1087.6 943.9,1086.5 943.1,902.6 858.5,902.9 858.3,848.7 768.4,849.1 768.8,959 693,959.4 	"/>
	<polygon class="st4" points="103.4,869.4 103.4,814.6 103.7,814.6 145.4,759.7 187.2,814.6 187.5,814.6 187.5,935.3 268.8,935.3 
		268.8,1087.6 187.5,1087.6 184.7,1087.6 107,1087.6 103.4,1087.6 23,1087.6 23,869.4 	"/>
	<polygon class="st5" points="570.7,1087.6 320.3,1086.5 321.1,902.6 405.7,902.9 405.9,848.7 495.9,849.1 495.4,959 571.2,959.4 	
		"/>
	<g class="st6">
		<g>
			
				<rect x="424" y="886.7" transform="matrix(4.210621e-03 -1 1 4.210621e-03 -458.9894 1320.4694)" class="st7" width="19" height="8.1"/>
		</g>
		<g>
			
				<rect x="456.4" y="886.8" transform="matrix(4.210621e-03 -1 1 4.210621e-03 -426.8789 1352.9851)" class="st7" width="19" height="8.1"/>
		</g>
		<g>
			
				<rect x="456.3" y="918.3" transform="matrix(4.147777e-03 -1 1 4.147777e-03 -458.4817 1384.2809)" class="st7" width="19" height="8.1"/>
		</g>
		<g>
			
				<rect x="423.8" y="951.2" transform="matrix(4.147777e-03 -1 1 4.147777e-03 -523.7784 1384.5377)" class="st7" width="19" height="8.1"/>
		</g>
		<g>
			
				<rect x="456.2" y="951.3" transform="matrix(4.147777e-03 -1 1 4.147777e-03 -491.6656 1417.0536)" class="st7" width="19" height="8.1"/>
		</g>
		<g>
			
				<rect x="504.1" y="997" transform="matrix(4.147777e-03 -1 1 4.147777e-03 -489.6226 1510.4866)" class="st7" width="19" height="8.1"/>
		</g>
		<g>
			
				<rect x="536.5" y="997.2" transform="matrix(4.147517e-03 -1 1 4.147517e-03 -457.5097 1543.0026)" class="st7" width="19" height="8.1"/>
		</g>
		<g>
			
				<rect x="536.3" y="1032.2" transform="matrix(4.147777e-03 -1 1 4.147777e-03 -492.6618 1577.7183)" class="st7" width="19" height="8.1"/>
		</g>
		<g>
			
				<rect x="337.8" y="938.5" transform="matrix(4.147777e-03 -1 1 4.147777e-03 -596.6813 1285.9766)" class="st7" width="19" height="8.1"/>
		</g>
		<g>
			
				<rect x="337.7" y="972.3" transform="matrix(4.147777e-03 -1 1 4.147777e-03 -630.5992 1319.4734)" class="st7" width="19" height="8.1"/>
		</g>
		<g>
			
				<rect x="370.1" y="972.4" transform="matrix(4.147777e-03 -1 1 4.147777e-03 -598.4865 1351.9894)" class="st7" width="19" height="8.1"/>
		</g>
	</g>
	<polygon class="st8" points="265.2,1087.6 265.2,840.5 265.7,840.5 310.4,789.4 355.1,840.5 355.6,840.5 355.6,1087.6 	"/>
	<g class="st6">
		<g>
			<rect x="157.1" y="826.4" class="st7" width="8.1" height="18.7"/>
		</g>
		<g>
			<rect x="157.1" y="857.5" class="st7" width="8.1" height="18.7"/>
		</g>
		<g>
			<rect x="124.7" y="857.5" class="st7" width="8.1" height="18.7"/>
		</g>
		<g>
			<rect x="124.7" y="895.7" class="st7" width="8.1" height="18.7"/>
		</g>
		<g>
			<rect x="76.1" y="895.7" class="st7" width="8.1" height="18.7"/>
		</g>
		<g>
			<rect x="43.7" y="895.7" class="st7" width="8.1" height="18.7"/>
		</g>
		<g>
			<rect x="76.1" y="930.3" class="st7" width="8.1" height="18.7"/>
		</g>
		<g>
			<rect x="43.7" y="930.3" class="st7" width="8.1" height="18.7"/>
		</g>
		<g>
			<rect x="239.4" y="959.4" class="st7" width="8.1" height="18.7"/>
		</g>
		<g>
			<rect x="207" y="959.4" class="st7" width="8.1" height="18.7"/>
		</g>
		<g>
			<rect x="239.4" y="993.9" class="st7" width="8.1" height="18.7"/>
		</g>
		<g>
			<rect x="207" y="993.9" class="st7" width="8.1" height="18.7"/>
		</g>
	</g>
	<polygon class="st4" points="1432.3,923.6 1432.3,770.1 1342,770.1 1342,863.2 1254.6,863.2 1254.6,1087.6 1342,1087.6 
		1356.7,1087.6 1387.2,1087.6 1432.3,1087.6 1594,1087.6 1594,923.6 	"/>
	<polygon class="st3" points="1292,1087.6 1041.7,1086.5 1042.4,902.6 1127,902.9 1127.2,848.7 1217.2,849.1 1216.7,959 
		1292.5,959.4 	"/>
	<polygon class="st4" points="1882.1,869.4 1882.1,814.6 1881.8,814.6 1840.1,759.7 1798.4,814.6 1798.1,814.6 1798.1,935.3 
		1716.8,935.3 1716.8,1087.6 1798.1,1087.6 1800.8,1087.6 1878.5,1087.6 1882.1,1087.6 1962.6,1087.6 1962.6,869.4 	"/>
	<polygon class="st5" points="1414.9,1087.6 1665.2,1086.5 1664.4,902.6 1579.9,902.9 1579.6,848.7 1489.7,849.1 1490.1,959 
		1414.3,959.4 	"/>
	<g class="st6">
		<g>
			
				<rect x="1548" y="881.2" transform="matrix(1 -4.210621e-03 4.210621e-03 1 -3.7366 6.5429)" class="st7" width="8.1" height="19"/>
		</g>
		<g>
			
				<rect x="1515.6" y="881.3" transform="matrix(1 -4.210621e-03 4.210621e-03 1 -3.7375 6.4065)" class="st7" width="8.1" height="19"/>
		</g>
		<g>
			
				<rect x="1515.7" y="912.9" transform="matrix(1 -4.147777e-03 4.147777e-03 1 -3.8126 6.3116)" class="st7" width="8.1" height="19"/>
		</g>
		<g>
			
				<rect x="1548.2" y="945.8" transform="matrix(1 -4.147517e-03 4.147517e-03 1 -3.9485 6.4464)" class="st7" width="8.1" height="19"/>
		</g>
		<g>
			
				<rect x="1515.9" y="945.9" transform="matrix(1 -4.147777e-03 4.147777e-03 1 -3.9496 6.3125)" class="st7" width="8.1" height="19"/>
		</g>
		<g>
			
				<rect x="1467.9" y="991.6" transform="matrix(1 -4.147517e-03 4.147517e-03 1 -4.1393 6.1137)" class="st7" width="8.1" height="19"/>
		</g>
		<g>
			
				<rect x="1435.5" y="991.7" transform="matrix(1 -4.147777e-03 4.147777e-03 1 -4.1404 5.9797)" class="st7" width="8.1" height="19"/>
		</g>
		<g>
			
				<rect x="1435.7" y="1026.7" transform="matrix(1 -4.147517e-03 4.147517e-03 1 -4.2853 5.9803)" class="st7" width="8.1" height="19"/>
		</g>
		<g>
			
				<rect x="1634.2" y="933.1" transform="matrix(1 -4.147777e-03 4.147777e-03 1 -3.8955 6.8031)" class="st7" width="8.1" height="19"/>
		</g>
		<g>
			
				<rect x="1634.3" y="966.9" transform="matrix(1 -4.147777e-03 4.147777e-03 1 -4.0356 6.804)" class="st7" width="8.1" height="19"/>
		</g>
		<g>
			
				<rect x="1601.9" y="967" transform="matrix(1 -4.147517e-03 4.147517e-03 1 -4.0362 6.6693)" class="st7" width="8.1" height="19"/>
		</g>
	</g>
	<polygon class="st8" points="1720.4,1087.6 1720.4,840.5 1719.9,840.5 1675.2,789.4 1630.5,840.5 1629.9,840.5 1629.9,1087.6 	"/>
	<g class="st6">
		<g>
			<rect x="1000.6" y="858.7" class="st7" width="8.1" height="18.8"/>
		</g>
		<g>
			<rect x="984.4" y="900.6" class="st7" width="8.1" height="18.8"/>
		</g>
		<g>
			<rect x="1016.8" y="900.6" class="st7" width="8.1" height="18.8"/>
		</g>
		<g>
			<rect x="984.4" y="935.4" class="st7" width="8.1" height="18.8"/>
		</g>
		<g>
			<rect x="1016.8" y="935.4" class="st7" width="8.1" height="18.8"/>
		</g>
	</g>
	<g class="st6">
		<g>
			
				<rect x="574.6" y="801" transform="matrix(4.153651e-03 -1 1 4.153651e-03 -223.8902 1384.9696)" class="st7" width="17.7" height="7.8"/>
		</g>
		<g>
			
				<rect x="605.8" y="830.5" transform="matrix(4.153381e-03 -1 1 4.153381e-03 -222.3125 1445.6097)" class="st7" width="17.7" height="7.8"/>
		</g>
		<g>
			
				<rect x="574.3" y="861.2" transform="matrix(4.153381e-03 -1 1 4.153381e-03 -284.377 1444.7061)" class="st7" width="17.7" height="7.8"/>
		</g>
		<g>
			
				<rect x="605.7" y="861.3" transform="matrix(4.218277e-03 -1 1 4.218277e-03 -253.3202 1476.1368)" class="st7" width="17.7" height="7.8"/>
		</g>
		<g>
			
				<rect x="574.3" y="932.1" transform="matrix(4.153381e-03 -1 1 4.153381e-03 -355.3018 1515.3369)" class="st7" width="17.7" height="7.8"/>
		</g>
		<g>
			
				<rect x="605.7" y="932.3" transform="matrix(4.153381e-03 -1 1 4.153381e-03 -324.2051 1546.8237)" class="st7" width="17.7" height="7.8"/>
		</g>
		<g>
			
				<rect x="655.4" y="899.1" transform="matrix(4.153381e-03 -1 1 4.153381e-03 -241.563 1563.4749)" class="st7" width="17.7" height="7.8"/>
		</g>
		<g>
			
				<rect x="686.7" y="899.2" transform="matrix(4.153381e-03 -1 1 4.153381e-03 -210.4666 1594.962)" class="st7" width="17.7" height="7.8"/>
		</g>
	</g>
	<g class="st6">
		<g>
			
				<rect x="826.7" y="872.4" transform="matrix(1 -4.147777e-03 4.147777e-03 1 -3.6508 3.4532)" class="st7" width="8.1" height="19"/>
		</g>
		<g>
			
				<rect x="794.3" y="872.6" transform="matrix(1 -4.210357e-03 4.210357e-03 1 -3.7066 3.369)" class="st7" width="8.1" height="19"/>
		</g>
		<g>
			
				<rect x="794.4" y="904.1" transform="matrix(1 -4.147517e-03 4.147517e-03 1 -3.7821 3.3195)" class="st7" width="8.1" height="19"/>
		</g>
		<g>
			
				<rect x="826.9" y="937" transform="matrix(1 -4.147777e-03 4.147777e-03 1 -3.9185 3.4548)" class="st7" width="8.1" height="19"/>
		</g>
		<g>
			
				<rect x="714.2" y="982.9" transform="matrix(1 -4.147777e-03 4.147777e-03 1 -4.1101 2.9878)" class="st7" width="8.1" height="19"/>
		</g>
		<g>
			
				<rect x="714.4" y="1017.9" transform="matrix(1 -4.210621e-03 4.210621e-03 1 -4.3197 3.0341)" class="st7" width="8.1" height="19"/>
		</g>
		<g>
			
				<rect x="912.9" y="924.3" transform="matrix(1 -4.147777e-03 4.147777e-03 1 -3.8652 3.8112)" class="st7" width="8.1" height="19"/>
		</g>
		<g>
			
				<rect x="913" y="958.1" transform="matrix(1 -4.147517e-03 4.147517e-03 1 -4.0051 3.8118)" class="st7" width="8.1" height="19"/>
		</g>
		<g>
			
				<rect x="880.6" y="958.2" transform="matrix(1 -4.147777e-03 4.147777e-03 1 -4.0062 3.6777)" class="st7" width="8.1" height="19"/>
		</g>
	</g>
	<g class="st6">
		<g>
			<rect x="306.3" y="858.7" class="st7" width="8.1" height="18.8"/>
		</g>
		<g>
			<rect x="322.5" y="900.6" class="st7" width="8.1" height="18.8"/>
		</g>
		<g>
			<rect x="290.1" y="900.6" class="st7" width="8.1" height="18.8"/>
		</g>
		<g>
			<rect x="322.5" y="935.4" class="st7" width="8.1" height="18.8"/>
		</g>
		<g>
			<rect x="290.1" y="935.4" class="st7" width="8.1" height="18.8"/>
		</g>
	</g>
	<g class="st6">
		<g>
			
				<rect x="1398.2" y="796" transform="matrix(1 -4.153381e-03 4.153381e-03 1 -3.3309 5.8305)" class="st7" width="7.8" height="17.7"/>
		</g>
		<g>
			
				<rect x="1367" y="825.6" transform="matrix(1 -4.153651e-03 4.153651e-03 1 -3.4541 5.7014)" class="st7" width="7.8" height="17.7"/>
		</g>
		<g>
			
				<rect x="1398.5" y="856.3" transform="matrix(1 -4.153381e-03 4.153381e-03 1 -3.5811 5.8321)" class="st7" width="7.8" height="17.7"/>
		</g>
		<g>
			
				<rect x="1367.1" y="856.4" transform="matrix(1 -4.218277e-03 4.218277e-03 1 -3.6377 5.791)" class="st7" width="7.8" height="17.7"/>
		</g>
		<g>
			
				<rect x="1398.5" y="927.2" transform="matrix(1 -4.153381e-03 4.153381e-03 1 -3.8757 5.8327)" class="st7" width="7.8" height="17.7"/>
		</g>
		<g>
			
				<rect x="1367.1" y="927.3" transform="matrix(1 -4.153381e-03 4.153381e-03 1 -3.8765 5.7024)" class="st7" width="7.8" height="17.7"/>
		</g>
		<g>
			
				<rect x="1317.4" y="894.2" transform="matrix(1 -4.153381e-03 4.153381e-03 1 -3.7392 5.4958)" class="st7" width="7.8" height="17.7"/>
		</g>
		<g>
			
				<rect x="1286.1" y="894.3" transform="matrix(1 -4.153381e-03 4.153381e-03 1 -3.74 5.3656)" class="st7" width="7.8" height="17.7"/>
		</g>
	</g>
	<g class="st6">
		<g>
			
				<rect x="1145.4" y="877.9" transform="matrix(4.147777e-03 -1 1 4.147777e-03 268.1526 2033.0787)" class="st7" width="19" height="8.1"/>
		</g>
		<g>
			
				<rect x="1177.7" y="878" transform="matrix(4.210621e-03 -1 1 4.210621e-03 300.191 2065.5391)" class="st7" width="19" height="8.1"/>
		</g>
		<g>
			
				<rect x="1177.6" y="909.5" transform="matrix(4.147777e-03 -1 1 4.147777e-03 268.6335 2096.8342)" class="st7" width="19" height="8.1"/>
		</g>
		<g>
			
				<rect x="1145.1" y="942.4" transform="matrix(4.147517e-03 -1 1 4.147517e-03 203.3369 2097.0916)" class="st7" width="19" height="8.1"/>
		</g>
		<g>
			
				<rect x="1257.8" y="988.4" transform="matrix(4.147777e-03 -1 1 4.147777e-03 269.605 2255.5557)" class="st7" width="19" height="8.1"/>
		</g>
		<g>
			
				<rect x="1257.6" y="1023.4" transform="matrix(4.210621e-03 -1 1 4.210621e-03 234.3741 2290.2068)" class="st7" width="19" height="8.1"/>
		</g>
		<g>
			
				<rect x="1059.2" y="929.7" transform="matrix(4.147777e-03 -1 1 4.147777e-03 130.4336 1998.5299)" class="st7" width="19" height="8.1"/>
		</g>
		<g>
			
				<rect x="1059" y="963.5" transform="matrix(4.147777e-03 -1 1 4.147777e-03 96.5159 2032.027)" class="st7" width="19" height="8.1"/>
		</g>
		<g>
			
				<rect x="1091.4" y="963.6" transform="matrix(4.147517e-03 -1 1 4.147517e-03 128.6289 2064.543)" class="st7" width="19" height="8.1"/>
		</g>
	</g>
	<g class="st6">
		<g>
			<rect x="1820.4" y="826.4" class="st7" width="8.1" height="18.7"/>
		</g>
		<g>
			<rect x="1820.4" y="857.5" class="st7" width="8.1" height="18.7"/>
		</g>
		<g>
			<rect x="1852.8" y="857.5" class="st7" width="8.1" height="18.7"/>
		</g>
		<g>
			<rect x="1852.8" y="895.7" class="st7" width="8.1" height="18.7"/>
		</g>
		<g>
			<rect x="1901.3" y="895.7" class="st7" width="8.1" height="18.7"/>
		</g>
		<g>
			<rect x="1933.7" y="895.7" class="st7" width="8.1" height="18.7"/>
		</g>
		<g>
			<rect x="1901.3" y="930.3" class="st7" width="8.1" height="18.7"/>
		</g>
		<g>
			<rect x="1933.7" y="930.3" class="st7" width="8.1" height="18.7"/>
		</g>
		<g>
			<rect x="1738.1" y="959.4" class="st7" width="8.1" height="18.7"/>
		</g>
		<g>
			<rect x="1770.4" y="959.4" class="st7" width="8.1" height="18.7"/>
		</g>
		<g>
			<rect x="1738.1" y="993.9" class="st7" width="8.1" height="18.7"/>
		</g>
		<g>
			<rect x="1770.4" y="993.9" class="st7" width="8.1" height="18.7"/>
		</g>
	</g>
	<g class="st6">
		<g>
			<rect x="1671.1" y="858.7" class="st7" width="8.1" height="18.8"/>
		</g>
		<g>
			<rect x="1654.9" y="900.6" class="st7" width="8.1" height="18.8"/>
		</g>
		<g>
			<rect x="1687.3" y="900.6" class="st7" width="8.1" height="18.8"/>
		</g>
		<g>
			<rect x="1654.9" y="935.4" class="st7" width="8.1" height="18.8"/>
		</g>
		<g>
			<rect x="1687.3" y="935.4" class="st7" width="8.1" height="18.8"/>
		</g>
	</g>
	<path class="st9" d="M1869,1026.1c-3.5,0-6.9,0.6-10.1,1.7c-4.3-8.9-13.3-15-23.8-15c-4,0-7.7,0.9-11.1,2.4c0-0.2,0-0.3,0-0.5
		c0-9.2-7.4-16.6-16.6-16.6c-2.9,0-5.6,0.7-7.9,2c-1.2-16.9-15.2-30.2-32.4-30.2c-18,0-32.5,14.6-32.5,32.5c0,3.1,0.4,6,1.2,8.8
		c-3.1-1.3-6.5-2-10-2c-14.6,0-26.4,11.8-26.4,26.4c0,2.7,0.4,5.3,1.2,7.8c-2.1-0.6-4.3-1-6.5-1c-12.7,0-23,10.3-23,23
		c0,10.5,7,19.3,16.6,22.1h188.8c13.6-3.3,23.7-15.6,23.7-30.3C1900.2,1040.1,1886.2,1026.1,1869,1026.1z"/>
	<path class="st10" d="M2006.2,1009.4c-4.5,0-8.8,0.8-12.8,2.1c-5.4-11.3-16.9-19.1-30.3-19.1c-5,0-9.8,1.1-14.1,3.1
		c0-0.2,0-0.4,0-0.6c0-11.7-9.5-21.1-21.1-21.1c-3.7,0-7.1,0.9-10.1,2.6c-1.5-21.5-19.4-38.4-41.2-38.4c-22.8,0-41.3,18.5-41.3,41.3
		c0,3.9,0.6,7.7,1.6,11.3c-3.9-1.6-8.2-2.5-12.8-2.5c-18.6,0-33.6,15.1-33.6,33.6c0,3.5,0.5,6.8,1.5,9.9c-2.6-0.8-5.4-1.2-8.3-1.2
		c-16.1,0-29.2,13.1-29.2,29.2c0,13.3,8.9,24.6,21.2,28.1h240.1c17.3-4.3,30.2-19.9,30.2-38.5
		C2045.9,1027.1,2028.1,1009.4,2006.2,1009.4z"/>
	<path class="st10" d="M229.9,819.1c0.9,23-1.3,46.3-7,69.1c-11.2,45.3-41.2,100.3-94.7,100.3c-54.4,0-84.1-56.5-95.1-102.4
		c-15.3-63.6-6-131.7,29.1-187.4c9.7-15.4,21.6-30,37.6-38.7c31.5-17.2,66.3-0.3,85.3,26.9C212.6,726.3,228,772.2,229.9,819.1z"/>
	<path class="st11" d="M127.1,749.8l-31.5,334.9c-0.1,1.5,1.1,2.9,2.6,2.9h63c1.6,0,2.8-1.3,2.6-2.9l-31.5-334.9
		C132,746.6,127.4,746.6,127.1,749.8z"/>
	<path class="st9" d="M305.2,942.3c0.5,12.4-0.7,25-3.8,37.4c-6.1,24.5-22.3,54.3-51.2,54.3c-29.4,0-45.5-30.6-51.5-55.4
		c-8.3-34.4-3.2-71.3,15.8-101.4c5.2-8.3,11.7-16.2,20.3-21c17-9.3,35.9-0.2,46.1,14.6C295.8,892.1,304.1,916.9,305.2,942.3z"/>
	<path class="st11" d="M237.9,969.9l-10.1,104.4c-0.3,5.9,4.5,10.9,10.4,10.9h20.2c5.9,0,10.7-5,10.4-10.9l-10.1-104.4
		C258,956.7,238.5,956.7,237.9,969.9z"/>
</g>
</svg>
